<?xml version="1.0" encoding="UTF-8" standalone="no"?>
<!DOCTYPE svg PUBLIC "-//W3C//DTD SVG 1.1//EN" "http://www.w3.org/Graphics/SVG/1.1/DTD/svg11.dtd">
<svg width="100%" height="100%" viewBox="0 0 2481 1749" version="1.1" xmlns="http://www.w3.org/2000/svg" xmlns:xlink="http://www.w3.org/1999/xlink" xml:space="preserve" xmlns:serif="http://www.serif.com/" style="fill-rule:evenodd;clip-rule:evenodd;stroke-linejoin:round;stroke-miterlimit:2;">
    <g transform="matrix(1.317241,0,0,1.317241,-209.62355,270.869536)">
        <path d="M488.579,874.016C337.835,874.016 215.449,751.63 215.449,600.886C215.449,451.671 335.363,330.243 483.998,327.794C527.089,184.12 664.647,78.936 827.489,78.936C893.738,78.936 955.802,96.345 1009.023,126.672C1060.85,74.312 1133.373,41.756 1213.589,41.756C1340.616,41.756 1448.352,123.395 1485.159,236.038C1500.53,233.348 1516.342,231.946 1532.479,231.946C1668.095,231.946 1780.759,331 1802.006,460.643C1905.366,472.358 1985.789,560.194 1985.789,666.666C1985.789,781.105 1892.878,874.016 1778.439,874.016L488.579,874.016Z" style="fill:white;"/>
    </g>
</svg>
