<?xml version="1.0" encoding="UTF-8" standalone="no"?>
<!DOCTYPE svg PUBLIC "-//W3C//DTD SVG 1.1//EN" "http://www.w3.org/Graphics/SVG/1.1/DTD/svg11.dtd">
<svg width="100%" height="100%" viewBox="0 0 2481 1749" version="1.1" xmlns="http://www.w3.org/2000/svg" xmlns:xlink="http://www.w3.org/1999/xlink" xml:space="preserve" xmlns:serif="http://www.serif.com/" style="fill-rule:evenodd;clip-rule:evenodd;stroke-linejoin:round;stroke-miterlimit:2;">
    <g transform="matrix(1,0,0,1,80.997149,501.993959)">
        <path d="M488.579,874.016C337.835,874.016 215.449,751.63 215.449,600.886C215.449,479.607 294.666,376.684 404.135,341.082C403.922,336.666 403.815,332.224 403.815,327.756C403.815,177.011 526.2,54.626 676.945,54.626C692.522,54.626 707.796,55.933 722.664,58.443C785.038,-53.884 904.89,-129.972 1042.374,-129.972C1174.533,-129.972 1290.4,-59.664 1354.58,45.557C1387.55,33.156 1423.262,26.371 1460.545,26.371C1626.884,26.371 1761.93,161.417 1761.93,327.756L1829.741,327.756C1980.486,327.756 2102.871,450.141 2102.871,600.886C2102.871,751.63 1980.486,874.016 1829.741,874.016L488.579,874.016Z" style="fill:white;"/>
    </g>
</svg>
