<?xml version="1.0" encoding="UTF-8" standalone="no"?>
<!DOCTYPE svg PUBLIC "-//W3C//DTD SVG 1.1//EN" "http://www.w3.org/Graphics/SVG/1.1/DTD/svg11.dtd">
<svg width="100%" height="100%" viewBox="0 0 4268 4268" version="1.1" xmlns="http://www.w3.org/2000/svg" xmlns:xlink="http://www.w3.org/1999/xlink" xml:space="preserve" xmlns:serif="http://www.serif.com/" style="fill-rule:evenodd;clip-rule:evenodd;stroke-linejoin:round;stroke-miterlimit:2;">
    <g transform="matrix(4.166667,0,0,4.166667,-4260.168247,-1930.135632)">
        <g transform="matrix(1,0,0,1,908.440379,1295.521552)">
            <path d="M436.406,191.93C406.719,191.93 378.145,188.07 350.684,180.352C323.223,172.633 297.543,161.797 273.645,147.844C249.746,133.891 228,117.117 208.406,97.523C188.812,77.93 172.039,56.184 158.086,32.285C144.133,8.387 133.297,-17.293 125.578,-44.754C117.859,-72.215 114,-100.789 114,-130.477C114,-174.117 122.09,-215.309 138.27,-254.051C154.449,-292.793 177.828,-327.602 208.406,-358.477L395.437,-547.734C400.484,-552.781 405.828,-557.457 411.469,-561.762C417.109,-566.066 422.453,-570.594 427.5,-575.344C441.453,-588.109 455.035,-601.32 468.246,-614.977C481.457,-628.633 494.594,-642.363 507.656,-656.168C520.719,-669.973 533.855,-683.703 547.066,-697.359C560.277,-711.016 573.711,-724.375 587.367,-737.437C619.727,-768.312 654.684,-791.84 692.238,-808.019C729.793,-824.199 770.984,-832.289 815.812,-832.289C845.5,-832.289 874.074,-828.43 901.535,-820.711C928.996,-812.992 954.676,-802.156 978.574,-788.203C1002.47,-774.25 1024.22,-757.477 1043.81,-737.883C1063.41,-718.289 1080.18,-696.543 1094.13,-672.644C1108.09,-648.746 1118.92,-623.066 1126.64,-595.605C1134.36,-568.144 1138.22,-539.57 1138.22,-509.883C1138.22,-466.242 1130.13,-425.051 1113.95,-386.309C1097.77,-347.566 1074.39,-312.758 1043.81,-281.883L856.781,-92.625C851.734,-87.578 846.391,-82.902 840.75,-78.598C835.109,-74.293 829.766,-69.766 824.719,-65.016C796.812,-39.188 770.019,-12.246 744.34,15.809C718.66,43.863 692.164,70.953 664.852,97.078C632.492,127.953 597.535,151.48 559.98,167.66C522.426,183.84 481.234,191.93 436.406,191.93ZM497.859,-320.18C497.859,-302.367 501.273,-285.52 508.102,-269.637C514.93,-253.754 524.281,-239.875 536.156,-228C548.031,-216.125 561.91,-206.773 577.793,-199.945C593.676,-193.117 610.523,-189.703 628.336,-189.703C633.977,-189.703 639.988,-190.148 646.371,-191.039C652.754,-191.93 659.062,-193.191 665.297,-194.824C671.531,-196.457 677.543,-198.609 683.332,-201.281C689.121,-203.953 694.242,-207.07 698.695,-210.633C715.617,-223.992 729.051,-240.172 738.996,-259.172C748.941,-278.172 753.914,-298.508 753.914,-320.18C753.914,-338.289 750.5,-355.211 743.672,-370.945C736.844,-386.68 727.566,-400.484 715.84,-412.359C704.113,-424.234 690.383,-433.586 674.648,-440.414C658.914,-447.242 641.992,-450.656 623.883,-450.656C618.539,-450.656 612.676,-450.211 606.293,-449.32C599.91,-448.43 593.527,-447.094 587.144,-445.312C580.762,-443.531 574.676,-441.379 568.887,-438.855C563.098,-436.332 557.977,-433.289 553.523,-429.727C536.602,-416.367 523.094,-400.187 513,-381.187C502.906,-362.187 497.859,-341.852 497.859,-320.18Z" style="fill-rule:nonzero;"/>
        </g>
        <g transform="matrix(1,0,0,1,908.440379,1295.521552)">
            <path d="M610.969,-30.727C614.531,-30.43 618.094,-30.207 621.656,-30.059C625.219,-29.91 628.781,-29.836 632.344,-29.836C660.25,-29.836 686.82,-33.992 712.055,-42.305C696.32,-26.273 680.883,-10.391 665.742,5.344C650.602,21.078 635.016,36.664 618.984,52.102C593.75,76.742 565.769,95.519 535.043,108.434C504.316,121.348 471.437,127.805 436.406,127.805C400.781,127.805 367.234,121.051 335.766,107.543C304.297,94.035 276.91,75.629 253.605,52.324C230.301,29.02 211.895,1.633 198.387,-29.836C184.879,-61.305 178.125,-94.852 178.125,-130.477C178.125,-166.398 184.434,-199.426 197.051,-229.559C209.668,-259.691 228.594,-287.523 253.828,-313.055L354.023,-414.586C374.508,-435.367 394.102,-455.629 412.805,-475.371C431.508,-495.113 451.102,-512.629 471.586,-527.918C492.07,-543.207 514.484,-555.453 538.828,-564.656C563.172,-573.859 591.523,-578.461 623.883,-578.461C656.836,-578.461 688.23,-572.449 718.066,-560.426C747.902,-548.402 774.398,-531.926 797.555,-510.996C820.711,-490.066 839.637,-465.352 854.332,-436.852C869.027,-408.352 877.859,-377.625 880.828,-344.672L812.695,-276.094C816.258,-290.344 818.039,-305.039 818.039,-320.18C818.039,-346.898 812.992,-372.059 802.898,-395.66C792.805,-419.262 778.926,-439.895 761.262,-457.559C743.598,-475.223 722.965,-489.102 699.363,-499.195C675.762,-509.289 650.602,-514.336 623.883,-514.336C597.461,-514.336 572.598,-509.512 549.293,-499.863C525.988,-490.215 504.984,-476.187 486.281,-457.781C466.687,-438.484 447.465,-419.039 428.613,-399.445C409.762,-379.852 390.539,-360.258 370.945,-340.664C355.211,-324.93 339.625,-309.715 324.187,-295.02C308.75,-280.324 294.945,-264.887 282.773,-248.707C270.602,-232.527 260.73,-214.863 253.16,-195.715C245.59,-176.566 241.805,-154.82 241.805,-130.477C241.805,-103.758 246.926,-78.523 257.168,-54.773C267.41,-31.023 281.289,-10.391 298.805,7.125C316.32,24.641 336.953,38.52 360.703,48.762C384.453,59.004 409.687,64.125 436.406,64.125C456.891,64.125 475,61.75 490.734,57C506.469,52.25 521.016,45.645 534.375,37.184C547.734,28.723 560.5,18.703 572.672,7.125C584.844,-4.453 597.609,-17.07 610.969,-30.727Z" style="fill:rgb(204,204,204);fill-rule:nonzero;"/>
        </g>
        <g transform="matrix(1,0,0,1,908.440379,1295.521552)">
            <path d="M815.812,-768.164C851.437,-768.164 884.91,-761.41 916.23,-747.902C947.551,-734.394 974.937,-715.914 998.391,-692.461C1021.84,-669.008 1040.32,-641.621 1053.83,-610.301C1067.34,-578.98 1074.09,-545.508 1074.09,-509.883C1074.09,-474.852 1067.64,-441.973 1054.72,-411.246C1041.81,-380.52 1023.03,-352.539 998.391,-327.305L898.195,-225.773C877.711,-204.992 858.191,-184.805 839.637,-165.211C821.082,-145.617 801.414,-128.176 780.633,-112.887C759.852,-97.598 737.289,-85.277 712.945,-75.926C688.602,-66.574 660.398,-61.898 628.336,-61.898C595.383,-61.898 563.988,-67.91 534.152,-79.934C504.316,-91.957 477.82,-108.434 454.664,-129.363C431.508,-150.293 412.582,-175.008 397.887,-203.508C383.191,-232.008 374.359,-262.734 371.391,-295.687L439.078,-364.266C435.812,-349.422 434.18,-334.727 434.18,-320.18C434.18,-293.461 439.227,-268.301 449.32,-244.699C459.414,-221.098 473.293,-200.465 490.957,-182.801C508.621,-165.137 529.254,-151.258 552.855,-141.164C576.457,-131.07 601.617,-126.023 628.336,-126.023C654.758,-126.023 679.621,-130.848 702.926,-140.496C726.23,-150.145 747.234,-164.172 765.937,-182.578C785.531,-201.875 804.828,-221.32 823.828,-240.914C842.828,-260.508 861.977,-280.102 881.273,-299.695C897.008,-315.43 912.519,-330.645 927.809,-345.34C943.098,-360.035 956.828,-375.473 969,-391.652C981.172,-407.832 991.043,-425.422 998.613,-444.422C1006.18,-463.422 1009.97,-485.242 1009.97,-509.883C1009.97,-536.602 1004.92,-561.762 994.828,-585.363C984.734,-608.965 970.855,-629.598 953.191,-647.262C935.527,-664.926 914.894,-678.805 891.293,-688.898C867.691,-698.992 842.531,-704.039 815.812,-704.039C795.328,-704.039 777.219,-701.738 761.484,-697.137C745.75,-692.535 731.203,-686.004 717.844,-677.543C704.484,-669.082 691.719,-659.062 679.547,-647.484C667.375,-635.906 654.609,-623.289 641.25,-609.633C637.687,-609.93 634.051,-610.152 630.34,-610.301C626.629,-610.449 622.992,-610.523 619.43,-610.523C591.523,-610.523 564.953,-606.367 539.719,-598.055L633.234,-692.461C658.172,-717.695 686.078,-736.621 716.953,-749.238C747.828,-761.855 780.781,-768.164 815.812,-768.164Z" style="fill:rgb(229,229,229);fill-rule:nonzero;"/>
        </g>
    </g>
</svg>
