<?xml version="1.0" encoding="UTF-8" standalone="no"?>
<!DOCTYPE svg PUBLIC "-//W3C//DTD SVG 1.1//EN" "http://www.w3.org/Graphics/SVG/1.1/DTD/svg11.dtd">
<svg width="100%" height="100%" viewBox="0 0 100 100" version="1.1" xmlns="http://www.w3.org/2000/svg" xmlns:xlink="http://www.w3.org/1999/xlink" xml:space="preserve" xmlns:serif="http://www.serif.com/" style="fill-rule:evenodd;clip-rule:evenodd;stroke-linejoin:round;stroke-miterlimit:2;">
    <g transform="matrix(1,0,0,1,10,1.1)">
        <path d="M0,33.1L24.4,33.1L7.1,16.7L16.6,7.1L33,23.8L33,0L47.2,0L47.2,23.8L63.6,7.1L73.1,16.7L55.8,33L80,33L80,46.5L55.7,46.5L73,63.2L63.5,72.6L40,49.1L16.5,72.7L7,63.2L24.3,46.5L0,46.5L0,33.1ZM33.1,65.8L47.3,65.8L47.3,97.8L33.1,97.8L33.1,65.8Z" style="fill-rule:nonzero;"/>
    </g>
</svg>
