<?xml version="1.0" encoding="UTF-8" standalone="no"?>
<!DOCTYPE svg PUBLIC "-//W3C//DTD SVG 1.1//EN" "http://www.w3.org/Graphics/SVG/1.1/DTD/svg11.dtd">
<svg width="100%" height="100%" viewBox="0 0 604 604" version="1.1" xmlns="http://www.w3.org/2000/svg" xmlns:xlink="http://www.w3.org/1999/xlink" xml:space="preserve" xmlns:serif="http://www.serif.com/" style="fill-rule:evenodd;clip-rule:evenodd;stroke-linejoin:round;stroke-miterlimit:2;">
    <g transform="matrix(4.166667,0,0,4.166667,0,0)">
        <g transform="matrix(1,0,0,1,115.9044,144.8238)">
            <path d="M0,-144.824L-86.985,-144.824C-102.887,-144.824 -115.904,-131.806 -115.904,-115.904L-115.904,-28.919C-115.904,-13.017 -102.887,0 -86.985,0L0,0C15.902,0 28.919,-13.017 28.919,-28.919L28.919,-115.904C28.919,-131.806 15.902,-144.824 0,-144.824" style="fill:white;fill-rule:nonzero;"/>
        </g>
        <g transform="matrix(1,0,0,1,97.357,26.1434)">
            <path d="M0,91.374L-15.262,91.374C-29.004,91.374 -39.246,84.304 -39.246,67.39L-39.246,40.303L-51.733,40.303L-51.733,25.636C-37.991,22.067 -32.243,10.241 -31.581,0L-17.311,0L-17.311,23.257L-0.662,23.257L-0.662,40.303L-17.311,40.303L-17.311,63.889C-17.311,70.958 -13.743,73.402 -8.062,73.402L0,73.402L0,91.374Z" style="fill-rule:nonzero;"/>
        </g>
    </g>
</svg>
