<?xml version="1.0" encoding="UTF-8" standalone="no"?>
<!DOCTYPE svg PUBLIC "-//W3C//DTD SVG 1.1//EN" "http://www.w3.org/Graphics/SVG/1.1/DTD/svg11.dtd">
<svg width="100%" height="100%" viewBox="0 0 88 88" version="1.1" xmlns="http://www.w3.org/2000/svg" xmlns:xlink="http://www.w3.org/1999/xlink" xml:space="preserve" xmlns:serif="http://www.serif.com/" style="fill-rule:evenodd;clip-rule:evenodd;stroke-linejoin:round;stroke-miterlimit:2;">
    <path d="M39.73,86.91C33.102,86.275 26.392,83.895 20.628,80.134C15.798,76.984 14.708,75.687 14.708,73.102C14.708,67.909 20.418,58.812 30.188,48.444C35.735,42.554 43.463,35.654 44.298,35.84C45.924,36.203 58.914,48.874 63.778,54.84C71.468,64.27 75.002,71.994 73.206,75.437C71.841,78.054 63.369,83.17 57.146,85.135C52.016,86.755 45.279,87.441 39.73,86.91ZM8.184,67.703C4.17,61.545 2.142,55.483 1.164,46.715C0.84,43.82 0.954,42.165 1.897,36.221C3.07,28.821 7.287,20.251 12.357,14.981C14.515,12.741 14.707,12.681 17.339,13.571C20.529,14.651 23.939,17.007 29.229,21.791L32.319,24.585L30.629,26.655C22.801,36.265 14.539,49.895 11.429,58.325C9.739,62.905 9.059,67.505 9.789,69.42C10.279,70.714 9.829,70.232 8.179,67.706L8.184,67.703ZM78.637,68.75C79.034,66.814 78.532,63.26 77.357,59.674C74.812,51.909 66.303,37.464 58.49,27.642L56.03,24.55L58.692,22.107C62.166,18.917 64.578,17.007 67.182,15.384C69.235,14.104 72.17,12.971 73.432,12.971C74.209,12.971 76.948,15.821 79.158,18.921C82.582,23.721 85.1,29.551 86.376,35.611C87.201,39.531 87.27,47.911 86.509,51.821C85.879,55.029 84.559,59.187 83.279,62.008C82.309,64.121 79.919,68.226 78.869,69.562C78.329,70.249 78.329,70.248 78.629,68.766L78.637,68.75ZM40.44,11.505C36.834,9.675 31.272,7.71 28.2,7.18C27.124,6.995 25.287,6.89 24.12,6.95C21.584,7.078 21.697,6.946 25.763,5.025C29.143,3.428 31.963,2.489 35.793,1.685C40.098,0.78 48.193,0.77 52.43,1.663C57.005,2.628 62.394,4.633 65.43,6.503L66.334,7.057L64.264,6.953C60.148,6.745 54.15,8.408 47.71,11.54C45.768,12.486 44.08,13.24 43.956,13.22C43.833,13.196 42.25,12.425 40.436,11.505L40.44,11.505Z" style="fill:white;fill-rule:nonzero;"/>
</svg>
